/* XPM */
static char *dummy[]={
"32 32 113 2",
"Qt c #000000",
".m c #3398c3",
".q c #3498c3",
"#H c #3599c3",
"#E c #3699c3",
".7 c #3699c4",
".2 c #379ac4",
"#u c #389ac4",
".O c #399bc4",
"#. c #3a9bc5",
".K c #3b9bc5",
".u c #3b9cc5",
".Q c #3c9cc5",
".H c #3c9dc5",
".e c #3d9cc5",
".L c #3d9dc5",
".d c #3d9dc6",
".T c #3e9dc6",
"#K c #3f9ec6",
"#D c #409ec7",
".N c #45a1c8",
"#c c #46a1c8",
"#A c #4aa3c9",
"#O c #4ba4ca",
"#j c #4ca4ca",
"#g c #51a7cb",
".B c #57aacd",
".l c #59abce",
".C c #5bacce",
".x c #5caccf",
".c c #5eaecf",
".f c #5eaed0",
".D c #5faecf",
"#x c #5faed0",
".V c #63b0d1",
"#r c #68b2d2",
"#I c #6cb5d4",
".F c #73b8d6",
"#f c #74b9d6",
".o c #75b9d6",
".U c #78bad7",
"#e c #79bbd7",
"#N c #81bfd9",
".w c #81bfda",
".y c #85c1db",
"#h c #86c1db",
"#z c #86c2db",
".s c #89c3dc",
".1 c #8dc5dd",
"#J c #92c8df",
".p c #93c8df",
"#o c #96c9e0",
"#S c #96cae0",
"#n c #97cae0",
"#R c #98cbe0",
".0 c #9bcce1",
".Z c #9ccde1",
".6 c #9dcde2",
"#T c #a0cfe3",
".J c #a1cfe3",
".3 c #a2d0e3",
"#b c #a3d0e4",
"#C c #a3d1e4",
".g c #a4d1e4",
".X c #a6d2e4",
".t c #a7d2e5",
".b c #a8d3e5",
"#a c #acd5e6",
"#k c #add5e6",
".v c #aed6e7",
".A c #afd6e7",
"#Q c #b5d9e9",
"#i c #b5dae9",
".j c #b9dbea",
".Y c #b9dcea",
".z c #bbdcea",
"#l c #bedeeb",
"## c #c0dfec",
"#F c #c2e0ed",
"#p c #c6e2ee",
"#v c #cee6f0",
"#U c #d3e9f2",
"#L c #d6eaf3",
"#B c #daecf4",
".8 c #dbecf4",
".G c #dbedf4",
"#y c #e0eff5",
".S c #e3f0f6",
"#m c #e4f1f7",
".k c #e8f3f8",
"#w c #e8f4f8",
".5 c #e9f4f8",
".M c #ebf4f9",
".4 c #ebf5f8",
"#M c #ecf5f9",
"#G c #eef6f9",
"#P c #eef6fa",
"#q c #f0f7fa",
".E c #f1f8fb",
".W c #f2f8fb",
"#t c #f3f9fb",
".R c #f4f9fb",
".9 c #f5fafc",
".I c #f6fafc",
"#d c #f7fbfc",
".h c #f8fbfc",
".i c #f8fbfd",
".a c #f9fcfd",
".P c #fafcfd",
"#s c #fcfdfe",
".n c #fdfefe",
".r c #fefefe",
".# c #ffffff",
"QtQtQtQtQtQtQtQtQtQtQtQtQtQtQtQtQtQtQtQtQtQtQtQtQtQtQtQtQtQtQtQt",
"Qt.#.#.#.#.#.#.#.#.#.#.#.#.#.#.#.#.#.#.#.#.#.#.#.#.#.#.#.#.#.#Qt",
"Qt.#.#.#.#.#.#.#.#.#.#.#.#.#.#.#.#.#.#.#.#.#.#.#.#.#.#.#.#.#.#Qt",
"Qt.#.#.#.#.#.#.#.#.#.#.#.#.#.#.#.#.#.#.#.#.#.#.#.#.#.#.#.#.#.#Qt",
"Qt.#.#.#.#.#.#.#.#.#.#.#.#.#.#.#.#.#.#.#.#.#.#.#.#.#.#.#.#.#.#Qt",
"Qt.#.#.#.#.#.#.#.#.#.#.#.#.#.#.#.#.#.#.#.#.#.#.#.#.#.#.#.#.#.#Qt",
"Qt.#.#.#.#.#.#.#.#.#.#.#.#.#.#.#.#.#.#.#.#.#.#.#.#.#.#.#.#.#.#Qt",
"Qt.#.#.#.#.#.#.#.#.a.b.c.d.e.f.g.h.#.#.#.#.#.#.#.#.i.j.#.#.#.#Qt",
"Qt.#.#.#.#.#.#.#.k.l.m.m.m.m.m.m.l.k.#.#.#.#.#.#.n.o.p.#.#.#.#Qt",
"Qt.#.#.#.#.#.#.a.l.m.m.m.q.m.m.m.m.l.a.#.#.#.#.r.s.m.g.#.#.#.#Qt",
"Qt.#.#.#.#.#.#.t.m.m.u.v.w.u.x.q.m.m.t.#.#.#.n.y.m.m.z.#.#.#.#Qt",
"Qt.#.#.#.#.#.#.c.m.m.A.j.m.B.#.C.m.m.D.#.#.E.F.m.m.m.G.#.#.#.#Qt",
"Qt.#.#.#.#.#.#.H.m.m.I.J.m.m.B.K.m.m.L.M.g.N.m.m.m.O.P.#.#.#.#Qt",
"Qt.#.#.#.#.#.#.Q.m.m.R.S.T.m.m.U.m.m.m.m.m.m.m.m.m.V.#.#.#.#.#Qt",
"Qt.#.#.#.#.#.W.u.m.m.X.#.S.J.Y.Z.m.m.m.m.m.m.m.m.m.0.#.#.#.#.#Qt",
"Qt.#.#.#.#.#.1.m.m.m.2.3.4.5.6.7.m.m.m.m.m.m.m.m.m.8.#.#.#.#.#Qt",
"Qt.#.#.#.#.9#..m.m.m.m.m.m.m.m.m.m.m.m.m.m.m.m.m.l.#.#.#.#.#.#Qt",
"Qt.#.#.#.###.m.m.m.m.m.m.m.m.m.m.m.m.m.m.m.m.m.m#a.#.#.#.#.#.#Qt",
"Qt.#.#.#.##b.m.m.m.m.m.m.m.m.m.m.m.m.m.m.m.m.m#c#d.#.#.#.#.#.#Qt",
"Qt.#.#.#.#.3.m.m#e#f.m.m.m.m.m.m.m#g#h#i#j.m.m#k.#.#.#.#.#.#.#Qt",
"Qt.#.#.#.##l.m.m.D.##m.A#n#o.b#p#q.#.I#r.m.m.D#s.#.#.#.#.#.#.#Qt",
"Qt.#.#.#.##t#u.m.m#v.#.#.#.#.#.#.##w#x.m.m.T#y.#.#.#.#.#.#.#.#Qt",
"Qt.#.#.#.#.##z.m.m#A#B.#.#.#.##d#C#D.m.m#E#F.#.#.#.#.#.#.#.#.#Qt",
"Qt.#.#.#.#.##G#A.m.m#H#I#J.p.F#K.m.m.m.O#l.#.#.#.#.#.#.#.#.#.#Qt",
"Qt.#.#.#.#.#.#.8#A.m.m.m.m.m.m.m.m.m#g#L.#.#.#.#.#.#.#.#.#.#.#Qt",
"Qt.#.#.#.#.#.#.##M#N#H.m.m.m.m.m#O.X.P.#.#.#.#.#.#.#.#.#.#.#.#Qt",
"Qt.#.#.#.#.#.#.#.#.##P#Q#R#S#T#U.r.#.#.#.#.#.#.#.#.#.#.#.#.#.#Qt",
"Qt.#.#.#.#.#.#.#.#.#.#.#.#.#.#.#.#.#.#.#.#.#.#.#.#.#.#.#.#.#.#Qt",
"Qt.#.#.#.#.#.#.#.#.#.#.#.#.#.#.#.#.#.#.#.#.#.#.#.#.#.#.#.#.#.#Qt",
"Qt.#.#.#.#.#.#.#.#.#.#.#.#.#.#.#.#.#.#.#.#.#.#.#.#.#.#.#.#.#.#Qt",
"Qt.#.#.#.#.#.#.#.#.#.#.#.#.#.#.#.#.#.#.#.#.#.#.#.#.#.#.#.#.#.#Qt",
"QtQtQtQtQtQtQtQtQtQtQtQtQtQtQtQtQtQtQtQtQtQtQtQtQtQtQtQtQtQtQtQt"};
